<?xml version="1.0" encoding="UTF-8"?>
<svg version="1.1" xmlns="http://www.w3.org/2000/svg" width="1254" height="1254">
<path d="M0 0 C2.79133394 -0.00059911 5.58266631 -0.00270122 8.37399954 -0.00472724 C14.42675617 -0.00832458 20.47950386 -0.00823823 26.53226089 -0.00568008 C35.53311225 -0.00188635 44.53395612 -0.00383717 53.53480743 -0.00688839 C69.61315934 -0.01214622 85.69150727 -0.01170091 101.76985955 -0.00880948 C115.83986404 -0.0062917 129.90986708 -0.00563826 143.97987175 -0.00683212 C145.38103312 -0.0069467 145.38103312 -0.0069467 146.81050079 -0.00706359 C150.60255008 -0.00737494 154.39459937 -0.00769334 158.18664866 -0.00802336 C193.74159367 -0.01108073 229.29653616 -0.00831143 264.85148078 -0.00292646 C296.42641477 0.00181935 328.00134473 0.001394 359.57627869 -0.00338745 C395.06863782 -0.00874419 430.56099472 -0.01086427 466.0533542 -0.00777519 C469.83809467 -0.00745448 473.62283514 -0.00714164 477.40757561 -0.00683212 C478.3394439 -0.00675305 479.2713122 -0.00667397 480.23141893 -0.00659249 C494.29182326 -0.00545593 508.35222597 -0.0067836 522.41263008 -0.00931168 C538.40217956 -0.01217232 554.39172443 -0.01145311 570.38127334 -0.00603093 C579.32553784 -0.00309776 588.2697924 -0.00289849 597.21405664 -0.00667711 C603.19339047 -0.00892419 609.17271633 -0.00751544 615.15204898 -0.00317234 C618.55543443 -0.00080063 621.958784 -0.00051961 625.3621713 -0.00357832 C660.30770269 -0.03257291 660.30770269 -0.03257291 664.6268158 2.12698364 C666.18171699 2.3467893 667.74329912 2.52020277 669.3065033 2.66995239 C681.2466269 3.90476468 692.94755988 5.6042253 704.6893158 8.12698364 C706.44381042 8.50052979 706.44381042 8.50052979 708.23374939 8.88162231 C714.27327367 10.21911453 719.89089976 11.82172625 725.6268158 14.12698364 C726.97155408 14.60020243 728.31932722 15.0648727 729.66978455 15.52151489 C741.51213174 19.56041429 752.69063583 24.37234858 763.63853455 30.47073364 C767.34175872 32.52323959 771.07622218 34.51389766 774.8143158 36.50198364 C775.48704529 36.86018188 776.15977478 37.21838013 776.85289001 37.58743286 C778.44394568 38.43442508 780.03534301 39.28077544 781.6268158 40.12698364 C781.6268158 40.78698364 781.6268158 41.44698364 781.6268158 42.12698364 C782.2868158 42.35385864 782.9468158 42.58073364 783.6268158 42.81448364 C789.98092911 45.59440822 794.79185215 49.16478411 799.6268158 54.12698364 C800.97259705 54.99710083 800.97259705 54.99710083 802.3455658 55.88479614 C806.08520045 58.44021315 809.23322758 61.32065325 812.5018158 64.43948364 C813.73260319 65.60198407 814.96436812 66.76345044 816.1971283 67.92385864 C817.07933044 68.75433716 817.07933044 68.75433716 817.97935486 69.60159302 C820.62773234 72.05373625 823.38271209 74.37475082 826.1736908 76.66213989 C827.6268158 78.12698364 827.6268158 78.12698364 828.6111908 80.12698364 C829.79368496 82.45558754 831.06472796 83.48733595 833.1268158 85.06448364 C836.16959057 87.5426198 837.28631279 89.41482148 838.6268158 93.12698364 C839.24169861 93.41444458 839.85658142 93.70190552 840.49009705 93.99807739 C843.15471946 95.40589435 844.05113599 96.89184917 845.6268158 99.43948364 C847.21639269 101.94306725 848.74326004 104.26890006 850.6268158 106.56448364 C858.6268158 116.81448364 858.6268158 116.81448364 858.6268158 121.12698364 C859.2868158 121.12698364 859.9468158 121.12698364 860.6268158 121.12698364 C877.6268158 152.65425637 877.6268158 152.65425637 877.6268158 159.12698364 C878.2868158 159.12698364 878.9468158 159.12698364 879.6268158 159.12698364 C882.70521297 167.20146802 885.30665441 175.20604581 887.28208923 183.61917114 C887.95813021 186.49344516 888.68104169 189.28384398 889.64634705 192.07620239 C897.16049431 215.45687575 895.93316367 242.78467947 895.88995227 267.00166721 C895.88570624 270.65329432 895.89322583 274.30490299 895.89910477 277.95652527 C895.90779217 284.33010989 895.90920581 290.70366237 895.9056015 297.07725143 C895.9002556 306.55597054 895.90642854 316.03465895 895.91468443 325.51337472 C895.92986627 343.43426916 895.9316355 361.35514938 895.92916141 379.27604891 C895.92732352 393.12243397 895.92909872 406.96881441 895.93338585 420.8151989 C895.93398827 422.80967594 895.93458947 424.80415297 895.93518945 426.79863001 C895.93609678 429.80470875 895.93700545 432.81078749 895.9379218 435.81686623 C895.94634266 463.74014483 895.95069306 491.6634217 895.94651508 519.58670139 C895.94635871 520.63777195 895.94620233 521.68884251 895.94604122 522.77176369 C895.94523552 528.09810751 895.94438975 533.42445132 895.94352791 538.75079513 C895.94335683 539.80848312 895.94318574 540.86617111 895.94300947 541.95591026 C895.94266281 544.09480877 895.94231428 546.23370729 895.94196388 548.37260581 C895.93660875 581.64108404 895.94453474 614.90953575 895.96299744 648.17800903 C895.98375256 685.62044757 895.99443344 723.06286968 895.99042195 760.50531429 C895.99002665 764.50422887 895.9896651 768.50314345 895.98932457 772.50205803 C895.98918847 773.97883158 895.98918847 773.97883158 895.98904963 775.48543893 C895.98788778 790.29279044 895.99450036 805.10012527 896.00513649 819.90747261 C896.01723356 836.76510706 896.01869587 853.62270497 896.00634632 870.48034001 C895.99975859 879.89191747 896.00125336 889.30340731 896.01493484 898.7149776 C896.02326407 905.02843095 896.02037373 911.34181963 896.00895957 917.65526786 C896.00278564 921.23458405 896.00088175 924.81373116 896.0128229 928.39303667 C896.05168339 943.03772286 895.63410974 957.53857872 894.29092693 972.11836147 C894.17466675 973.40007007 894.05840657 974.68177866 893.93862336 976.00232691 C893.05001895 984.85846973 891.51308458 993.43761589 889.6268158 1002.12698364 C888.9668158 1002.12698364 888.3068158 1002.12698364 887.6268158 1002.12698364 C887.5236908 1003.39671021 887.4205658 1004.66643677 887.3143158 1005.97463989 C886.71237483 1011.38469028 885.25473121 1016.38510182 883.6268158 1021.56448364 C883.35353455 1022.46102661 883.0802533 1023.35756958 882.7986908 1024.28128052 C880.80104525 1030.77852474 880.80104525 1030.77852474 879.6268158 1033.12698364 C878.9668158 1033.12698364 878.3068158 1033.12698364 877.6268158 1033.12698364 C877.52755798 1033.95842896 877.42830017 1034.78987427 877.32603455 1035.64651489 C876.52564396 1039.63058202 875.10025472 1043.13232209 873.4393158 1046.81448364 C873.12832947 1047.51420288 872.81734314 1048.21392212 872.49693298 1048.93484497 C869.838056 1054.83346754 866.88583216 1060.53608488 863.6268158 1066.12698364 C862.86111267 1067.51337036 862.86111267 1067.51337036 862.0799408 1068.92776489 C861.60040955 1069.65350708 861.1208783 1070.37924927 860.6268158 1071.12698364 C859.9668158 1071.12698364 859.3068158 1071.12698364 858.6268158 1071.12698364 C858.4411908 1071.91073364 858.2555658 1072.69448364 858.0643158 1073.50198364 C856.02765034 1078.63792261 852.8967027 1082.70157279 849.6268158 1087.12698364 C848.82946355 1088.23080572 848.0326058 1089.33498514 847.2361908 1090.43948364 C846.42979236 1091.54430282 845.6225134 1092.64847991 844.8143158 1093.75198364 C844.06537048 1094.77549927 843.31642517 1095.79901489 842.54478455 1096.85354614 C841.91185486 1097.60378052 841.27892517 1098.35401489 840.6268158 1099.12698364 C839.9668158 1099.12698364 839.3068158 1099.12698364 838.6268158 1099.12698364 C838.37415955 1099.87206177 838.1215033 1100.61713989 837.8611908 1101.38479614 C836.54161247 1104.31626445 835.21030547 1105.82225104 832.8768158 1108.00198364 C830.30189794 1110.47038511 827.88505496 1112.92872423 825.6268158 1115.68948364 C822.98921176 1118.8278093 820.09779027 1121.4478338 816.97447205 1124.09573364 C815.15437659 1125.67052505 813.38233485 1127.26765108 811.62290955 1128.90823364 C811.09713318 1129.39775513 810.57135681 1129.88727661 810.02964783 1130.39163208 C808.9924234 1131.36038759 807.95809479 1132.3322557 806.92710876 1133.30764771 C799.59839427 1140.12698364 799.59839427 1140.12698364 795.6268158 1140.12698364 C795.2968158 1141.11698364 794.9668158 1142.10698364 794.6268158 1143.12698364 C792.19322205 1144.95120239 792.19322205 1144.95120239 789.1893158 1146.81448364 C788.20060486 1147.43710083 787.21189392 1148.05971802 786.19322205 1148.70120239 C783.6268158 1150.12698364 783.6268158 1150.12698364 781.6268158 1150.12698364 C781.6268158 1150.78698364 781.6268158 1151.44698364 781.6268158 1152.12698364 C772.58600008 1157.36614229 763.52059121 1162.27011919 753.99790955 1166.57620239 C751.20517999 1167.86092271 748.51868072 1169.23328714 745.8143158 1170.68948364 C741.11905596 1173.07286427 736.23147322 1174.76017627 731.2518158 1176.43948364 C730.46572937 1176.70640015 729.67964294 1176.97331665 728.86973572 1177.24832153 C727.74788879 1177.6155835 727.74788879 1177.6155835 726.6033783 1177.99026489 C725.93387146 1178.20980835 725.26436462 1178.42935181 724.5745697 1178.6555481 C722.6268158 1179.12698364 722.6268158 1179.12698364 718.6268158 1179.12698364 C718.6268158 1179.78698364 718.6268158 1180.44698364 718.6268158 1181.12698364 C706.07440357 1184.24795378 693.63686287 1186.74801881 680.77891541 1188.2258606 C679.39458313 1188.38574463 679.39458313 1188.38574463 677.98228455 1188.54885864 C676.75481506 1188.68179321 676.75481506 1188.68179321 675.50254822 1188.81741333 C673.618307 1188.94131712 673.618307 1188.94131712 672.6268158 1190.12698364 C668.05398724 1190.66206093 663.44870896 1190.88634958 658.8541851 1191.17361069 C658.15718364 1191.21805841 657.46018218 1191.26250614 656.74205946 1191.30830076 C642.15467611 1192.22398017 627.60390896 1192.40847694 612.98890686 1192.38095093 C610.2550501 1192.3821563 607.52119961 1192.3863645 604.78734577 1192.39040542 C598.90923395 1192.39753535 593.03115904 1192.39746844 587.15304565 1192.3923111 C578.4111336 1192.38466243 569.66925199 1192.38865642 560.92734006 1192.39472771 C545.30255165 1192.40519732 529.67777972 1192.40437121 514.05298978 1192.39856989 C500.37735943 1192.39351786 486.70173507 1192.39223505 473.02610397 1192.39461517 C472.11526245 1192.39476794 471.20442093 1192.39492071 470.26597815 1192.39507811 C466.56758071 1192.3957009 462.86918329 1192.39633771 459.17078586 1192.39699764 C424.54882918 1192.40310162 389.92688293 1192.39759122 355.30492786 1192.38680385 C324.62006331 1192.37731581 293.93521536 1192.37816218 263.25035095 1192.38772583 C228.69048873 1192.39846149 194.13063571 1192.40266695 159.57077205 1192.3965013 C155.87890109 1192.39585997 152.18703012 1192.39523429 148.49515915 1192.39461517 C147.58628 1192.39445702 146.67740085 1192.39429886 145.74097991 1192.39413592 C132.08334589 1192.39187168 118.42571857 1192.39450145 104.76808548 1192.39957428 C89.21973337 1192.40532096 73.67140014 1192.40380369 58.12305035 1192.39301279 C50.20399432 1192.38769641 42.28496908 1192.38543205 34.36591339 1192.3923111 C-48.70724462 1192.45995343 -48.70724462 1192.45995343 -55.3731842 1189.12698364 C-57.20202773 1188.81371376 -59.03833835 1188.54354313 -60.87709045 1188.29495239 C-62.56644714 1188.05953735 -62.56644714 1188.05953735 -64.28993225 1187.81936646 C-65.4930304 1187.65275513 -66.69612854 1187.4861438 -67.9356842 1187.31448364 C-78.5855041 1185.79802271 -88.9774205 1183.88354722 -99.3731842 1181.12698364 C-99.3731842 1180.46698364 -99.3731842 1179.80698364 -99.3731842 1179.12698364 C-100.1775592 1179.01483521 -100.1775592 1179.01483521 -100.9981842 1178.90042114 C-120.26530688 1175.6681078 -140.11579282 1165.64840025 -156.3731842 1155.12698364 C-157.7344342 1154.3670813 -157.7344342 1154.3670813 -159.1231842 1153.59182739 C-159.8656842 1153.10842896 -160.6081842 1152.62503052 -161.3731842 1152.12698364 C-161.3731842 1151.46698364 -161.3731842 1150.80698364 -161.3731842 1150.12698364 C-162.61455139 1149.80794067 -162.61455139 1149.80794067 -163.8809967 1149.48245239 C-168.27611314 1147.77651794 -171.54388337 1145.3109192 -175.2481842 1142.43948364 C-175.95708801 1141.89856079 -176.66599182 1141.35763794 -177.39637756 1140.80032349 C-182.22599821 1137.08848016 -186.870231 1133.22920564 -191.3731842 1129.12698364 C-192.62005776 1128.0608164 -193.87001352 1126.9982421 -195.1231842 1125.93948364 C-197.66202434 1123.77400235 -200.01334386 1121.48682399 -202.3731842 1119.12698364 C-203.1981842 1118.50823364 -204.0231842 1117.88948364 -204.8731842 1117.25198364 C-207.3731842 1115.12698364 -207.3731842 1115.12698364 -209.3106842 1112.18948364 C-211.60366299 1108.78475757 -214.22876252 1106.73618462 -217.3731842 1104.12698364 C-218.40331698 1102.4787712 -219.40433049 1100.81194663 -220.3731842 1099.12698364 C-221.1156842 1098.40510864 -221.8581842 1097.68323364 -222.6231842 1096.93948364 C-228.90340412 1090.51653146 -237.89346036 1079.7060635 -239.8809967 1070.86917114 C-240.04341858 1070.29424927 -240.20584045 1069.71932739 -240.3731842 1069.12698364 C-241.3631842 1068.79698364 -242.3531842 1068.46698364 -243.3731842 1068.12698364 C-244.97865295 1065.50979614 -244.97865295 1065.50979614 -246.5606842 1062.25198364 C-247.09048889 1061.18206177 -247.62029358 1060.11213989 -248.16615295 1059.00979614 C-249.3731842 1056.12698364 -249.3731842 1056.12698364 -249.3731842 1053.12698364 C-250.0331842 1053.12698364 -250.6931842 1053.12698364 -251.3731842 1053.12698364 C-254.78705138 1045.57997539 -257.95576268 1038.34802849 -259.3731842 1030.12698364 C-260.0331842 1030.12698364 -260.6931842 1030.12698364 -261.3731842 1030.12698364 C-267.6394647 1009.83226151 -267.6394647 1009.83226151 -269.7325592 999.75588989 C-270.29772172 997.13117981 -270.29772172 997.13117981 -271.36219788 994.7883606 C-272.38342531 992.10002439 -272.83886856 989.76387674 -273.18959045 986.91604614 C-273.31398499 985.91702271 -273.43837952 984.91799927 -273.56654358 983.88870239 C-273.68835999 982.85358521 -273.81017639 981.81846802 -273.9356842 980.75198364 C-274.12420959 979.25731567 -274.12420959 979.25731567 -274.31654358 977.73245239 C-276.38949464 960.6930117 -276.52089981 943.79831226 -276.50785312 926.65359044 C-276.5062058 923.03024862 -276.51037262 919.40691241 -276.5137623 915.78357244 C-276.51889501 909.44429031 -276.52033721 903.10501581 -276.51930618 896.76573181 C-276.51777665 887.33812433 -276.52195324 877.91052525 -276.52718081 868.48291941 C-276.53683752 850.66050391 -276.53966444 832.83809129 -276.54023787 815.01567349 C-276.540698 801.24576191 -276.54275941 787.47585146 -276.54593849 773.70594025 C-276.54683609 769.73741253 -276.5477259 765.76888482 -276.54861337 761.8003571 C-276.54883442 760.81366278 -276.54905547 759.82696846 -276.54928321 758.81037431 C-276.55543524 731.06572547 -276.55938401 703.32107702 -276.55893993 675.57642746 C-276.55892436 674.53096781 -276.55890878 673.48550817 -276.55889273 672.40836793 C-276.55880962 667.10997532 -276.55871058 661.81158272 -276.55860802 656.51319012 C-276.55858807 655.46098038 -276.55856813 654.40877065 -276.55854758 653.32467576 C-276.55850714 651.19685045 -276.55846534 649.06902513 -276.55842219 646.94119981 C-276.5578098 613.85566242 -276.56531012 580.77013529 -276.57899475 547.68460083 C-276.59437689 510.47997148 -276.60295966 473.27534887 -276.60203153 436.07071614 C-276.6019569 432.09841617 -276.60190819 428.1261162 -276.60187721 424.15381622 C-276.60186556 423.17579731 -276.6018539 422.19777839 -276.6018419 421.19012254 C-276.6018112 405.49418331 -276.60817998 389.79825303 -276.61680948 374.10231646 C-276.62531322 358.30763068 -276.62625472 342.51295791 -276.61970016 326.71827111 C-276.61602236 317.35236795 -276.61778349 307.98650446 -276.6276425 298.62060555 C-276.63368776 292.34362692 -276.63229716 286.0666767 -276.625172 279.78969932 C-276.62132834 276.22696345 -276.62040286 272.66430374 -276.62862935 269.10157356 C-276.67354123 244.90121135 -275.72990696 220.9727795 -271.3731842 197.12698364 C-270.7131842 197.12698364 -270.0531842 197.12698364 -269.3731842 197.12698364 C-269.332901 196.52547485 -269.2926178 195.92396606 -269.25111389 195.30422974 C-268.72597186 188.85941789 -267.46029766 182.94193357 -265.6231842 176.75198364 C-265.35441467 175.83151245 -265.08564514 174.91104126 -264.80873108 173.962677 C-262.77038746 167.13025037 -260.32277551 160.61962757 -257.3731842 154.12698364 C-256.53840279 152.19479869 -255.7132141 150.25868456 -254.8888092 148.322052 C-253.72440654 145.58714751 -252.54847875 142.85722115 -251.3731842 140.12698364 C-250.7131842 140.12698364 -250.0531842 140.12698364 -249.3731842 140.12698364 C-249.20302795 139.57010864 -249.0328717 139.01323364 -248.8575592 138.43948364 C-244.71673465 125.40029143 -244.71673465 125.40029143 -240.93959045 121.73635864 C-238.89038628 119.63094188 -237.71729052 117.33018588 -236.3106842 114.75198364 C-230.2912373 104.23070462 -222.55970227 94.15883875 -213.8731842 85.68948364 C-211.77948122 83.54343809 -210.12059476 81.48054619 -208.3731842 79.06448364 C-206.02421456 75.86189359 -203.71286875 73.35344 -200.3731842 71.12698364 C-199.7131842 71.12698364 -199.0531842 71.12698364 -198.3731842 71.12698364 C-198.12181702 70.52756958 -197.87044983 69.92815552 -197.61146545 69.31057739 C-196.20667611 66.83336212 -194.89013073 65.79738076 -192.5606842 64.18948364 C-190.13494663 62.50507399 -188.10119485 60.85364558 -186.00990295 58.75198364 C-183.17954225 55.93420232 -180.16647337 53.4817986 -176.9981842 51.06448364 C-176.45935608 50.64360474 -175.92052795 50.22272583 -175.3653717 49.78909302 C-165.38681066 42.12698364 -165.38681066 42.12698364 -161.3731842 42.12698364 C-161.0431842 41.13698364 -160.7131842 40.14698364 -160.3731842 39.12698364 C-157.87498744 37.52919702 -155.41611479 36.08917236 -152.8106842 34.68948364 C-152.11910217 34.30727661 -151.42752014 33.92506958 -150.71498108 33.53128052 C-144.31041821 30.0156351 -137.84547912 26.60388686 -131.0606842 23.87698364 C-130.23955139 23.54182739 -129.41841858 23.20667114 -128.57240295 22.86135864 C-126.3731842 22.12698364 -126.3731842 22.12698364 -123.3731842 22.12698364 C-123.3731842 21.46698364 -123.3731842 20.80698364 -123.3731842 20.12698364 C-122.65775452 19.90035034 -121.94232483 19.67371704 -121.20521545 19.44021606 C-117.92718415 18.40045888 -114.65018098 17.35749655 -111.3731842 16.31448364 C-110.24783264 15.95805786 -109.12248108 15.60163208 -107.96302795 15.23440552 C-100.98380952 13.01455973 -100.98380952 13.01455973 -94.11146545 10.49026489 C-89.95541136 8.9746297 -85.8926092 7.98014002 -81.5606842 7.12698364 C-80.72625793 6.95964722 -79.89183167 6.79231079 -79.03211975 6.61990356 C-70.10085116 4.92352018 -61.08920195 3.97617288 -52.04774475 3.07815552 C-50.93439758 2.96665161 -49.82105042 2.85514771 -48.67396545 2.74026489 C-47.67534485 2.6452771 -46.67672424 2.55028931 -45.64784241 2.4524231 C-43.41065868 2.36440201 -43.41065868 2.36440201 -42.3731842 1.12698364 C-28.40272087 -0.67638977 -14.04691444 -0.01263566 0 0 Z " fill="#737373" transform="translate(317.37318420410156,25.873016357421875)"/>
<path d="M0 0 C0.93029526 -0.00807175 1.86059052 -0.01614349 2.81907654 -0.02445984 C4.77641983 -0.0382258 6.73378637 -0.04898106 8.69116211 -0.05688477 C10.68797871 -0.06845154 12.68476329 -0.0889766 14.68139648 -0.1184082 C17.57947613 -0.16106557 20.47664554 -0.17724526 23.375 -0.1875 C24.70646812 -0.21376213 24.70646812 -0.21376213 26.06483459 -0.24055481 C32.66155235 -0.21752055 35.98559857 1.19215886 40.765625 5.8359375 C44.52676563 10.55308712 45.47911954 13.93167658 45.40234375 19.82421875 C44.7893623 25.0856429 42.42823267 28.96465872 38.68359375 32.61328125 C33.7757203 35.72559124 29.9343156 36.48843426 24.125 36.546875 C22.74674133 36.57207701 21.36848622 36.59747428 19.99023438 36.62304688 C17.85165741 36.65147054 15.71314379 36.67551787 13.57446289 36.69458008 C-3.36465221 36.87446799 -19.32814925 38.93491283 -32.13671875 51.125 C-56.23671175 77.21709382 -72.02050569 115.80081667 -88.19458008 147.01318359 C-89.44056546 149.39895935 -90.69544694 151.77873951 -91.9597168 154.15478516 C-98.99215241 167.39278578 -105.72564407 180.77702131 -112.41918945 194.18847656 C-113.99387167 197.34351554 -115.5721572 200.49673588 -117.15141678 203.64948559 C-124.49425787 218.31250762 -131.70698315 233.03054739 -138.73965454 247.84539795 C-140.33011482 251.18599933 -141.9424709 254.51548341 -143.55859375 257.84375 C-149.24498773 269.55597246 -154.86133713 281.29089044 -160.31640625 293.11328125 C-162.49768357 297.82451841 -164.68445144 302.5331682 -166.87890625 307.23828125 C-167.33743988 308.22166473 -167.33743988 308.22166473 -167.80523682 309.22491455 C-169.74410592 313.37687256 -171.6986783 317.52097502 -173.67019653 321.65753174 C-174.29543069 322.97375761 -174.91677739 324.29183927 -175.53366089 325.61199951 C-183.49746008 342.63505078 -192.19949704 356.45837774 -209.87890625 364.23828125 C-210.63558594 364.61726563 -211.39226563 364.99625 -212.171875 365.38671875 C-216.13437336 366.63321896 -219.93563242 366.57902448 -224.06640625 366.55078125 C-224.91702637 366.5451416 -225.76764648 366.53950195 -226.64404297 366.53369141 C-239.14407934 366.29206391 -247.78055416 362.14019429 -256.94140625 353.67578125 C-261.90319874 348.50683639 -265.34669143 342.43064955 -268.87890625 336.23828125 C-269.43835938 335.28308594 -269.9978125 334.32789063 -270.57421875 333.34375 C-273.60021982 328.02924059 -275.9078331 322.75785239 -277.88671875 316.9765625 C-278.89013122 314.2073021 -280.0607143 311.58925207 -281.31640625 308.92578125 C-283.80067036 303.59147181 -285.75788282 298.13478921 -287.6953125 292.58203125 C-288.98612577 288.93537725 -290.39906075 285.35620118 -291.85546875 281.7734375 C-294.47625617 275.28148699 -296.95859646 268.7327451 -299.390625 262.16796875 C-302.41398348 253.89468105 -302.41398348 253.89468105 -305.87890625 245.80078125 C-307.71617997 241.82320949 -309.13619919 237.72328008 -310.5625 233.5859375 C-313.79258812 224.33542693 -317.32595012 215.21890484 -320.94140625 206.11328125 C-321.42471405 204.89286636 -321.42471405 204.89286636 -321.91778564 203.64779663 C-336.5132906 157.94910997 -336.5132906 157.94910997 -363.87890625 121.23828125 C-369.35755991 119.41206336 -374.82704574 119.33072756 -380.12890625 121.67578125 C-389.34677053 130.26515478 -392.88215896 141.97979755 -395.4296875 153.9765625 C-395.88596455 156.03583015 -396.34234831 158.09507416 -396.79882812 160.15429688 C-397.49302083 163.33396693 -398.18354395 166.51439092 -398.87084961 169.69555664 C-410.94666189 225.31734809 -410.94666189 225.31734809 -431.87890625 240.23828125 C-445.6331231 248.52983041 -459.30196104 251.2870497 -474.94140625 247.61328125 C-481.66318282 245.89170667 -487.26428417 243.39184925 -492.87890625 239.23828125 C-493.82636719 238.56152344 -493.82636719 238.56152344 -494.79296875 237.87109375 C-514.3569089 222.61639152 -519.20556664 193.54248122 -523.41790771 170.69035339 C-523.86300275 168.32287271 -524.33381317 165.96216307 -524.81274414 163.60131836 C-525.86621297 158.34994137 -526.83821094 153.0857828 -527.796875 147.81640625 C-534.18734727 93.13032218 -534.18734727 93.13032218 -557.44140625 45.67578125 C-562.41398231 42.7432364 -565.85260903 41.72498432 -571.609375 42.59375 C-576.75100702 44.0539381 -579.58484231 47.24191125 -582.43359375 51.63671875 C-589.41339118 64.54753576 -592.78301038 79.24554952 -596.05053711 93.44848633 C-597.90436067 101.49666592 -600.09097405 109.42806696 -602.35742188 117.36816406 C-603.03909157 119.81272861 -603.64018288 122.27590332 -604.25390625 124.73828125 C-607.7353883 137.34163525 -612.21910546 149.27134072 -620.87890625 159.23828125 C-621.52085937 160.02460937 -622.1628125 160.8109375 -622.82421875 161.62109375 C-627.21540893 166.54657323 -631.99860902 169.70769784 -637.81640625 172.67578125 C-638.46029297 173.00602295 -639.10417969 173.33626465 -639.76757812 173.67651367 C-648.20273826 177.70938991 -656.91461442 178.53816069 -666.15869141 178.52880859 C-667.13241196 178.53552582 -668.10613251 178.54224304 -669.10935974 178.54916382 C-672.29561603 178.56800598 -675.48166039 178.57206012 -678.66796875 178.57421875 C-680.89895715 178.58065311 -683.12994472 178.58738194 -685.3609314 178.59439087 C-690.02254189 178.60632683 -694.68407845 178.61007517 -699.34570312 178.60888672 C-705.30855839 178.60868302 -711.27093983 178.63605492 -717.23368263 178.67043114 C-721.83544075 178.69269474 -726.43708438 178.69672452 -731.03889084 178.69566727 C-733.237254 178.69802133 -735.43562041 178.70683385 -737.63393021 178.722332 C-740.70892721 178.74199329 -743.78289554 178.73615438 -746.85791016 178.72412109 C-747.75786209 178.73536011 -748.65781403 178.74659912 -749.58503723 178.75817871 C-756.25257632 178.69209238 -761.86533423 177.21346381 -766.71875 172.421875 C-767.08097656 171.84566406 -767.44320312 171.26945313 -767.81640625 170.67578125 C-768.19667969 170.09699219 -768.57695313 169.51820313 -768.96875 168.921875 C-771.49421266 164.25031102 -771.55216375 159.4024723 -770.87890625 154.23828125 C-768.65538363 148.61238566 -765.23354832 145.08649512 -759.87890625 142.23828125 C-757.11905037 141.39395467 -754.64845508 141.11214168 -751.76922607 141.10697937 C-750.95911575 141.10297119 -750.14900543 141.09896301 -749.31434631 141.09483337 C-747.99423805 141.09562645 -747.99423805 141.09562645 -746.64746094 141.09643555 C-745.71363083 141.09296112 -744.77980072 141.08948669 -743.81767273 141.08590698 C-741.7906224 141.07855879 -739.76356407 141.07320842 -737.7365036 141.06961632 C-734.52464807 141.06244162 -731.31294448 141.04676705 -728.10113525 141.02827454 C-718.96930024 140.97585477 -709.83754863 140.92784047 -700.70556641 140.91235352 C-695.1181411 140.90225685 -689.53109864 140.87288939 -683.94382477 140.83103371 C-681.81807606 140.81874312 -679.69227324 140.81359889 -677.56649017 140.81583214 C-674.58655631 140.81819224 -671.60771551 140.79596421 -668.62792969 140.76831055 C-667.75595444 140.77491196 -666.88397919 140.78151337 -665.98558044 140.78831482 C-659.31690232 140.68709275 -653.7916998 139.07534216 -648.92578125 134.3359375 C-642.13202246 123.67464735 -640.10002385 111.17560649 -637.23266602 99.03540039 C-634.70346524 88.36332958 -631.89933998 77.78146307 -628.87890625 67.23828125 C-628.66379395 66.48691895 -628.44868164 65.73555664 -628.22705078 64.96142578 C-621.47945314 41.69511916 -611.85809732 21.37027984 -589.87890625 9.23828125 C-578.50180499 3.72149858 -562.78177633 3.20341004 -550.87890625 7.23828125 C-550.10417969 7.48320312 -549.32945312 7.728125 -548.53125 7.98046875 C-531.62940471 13.88435907 -521.36304792 28.78678185 -513.87890625 44.23828125 C-511.89130659 48.81463468 -510.33188337 53.47111159 -508.87890625 58.23828125 C-508.62431641 59.05167969 -508.36972656 59.86507812 -508.10742188 60.703125 C-500.75259589 84.32771755 -495.25088434 108.38918419 -491.28320312 132.80322266 C-490.4886194 137.58895819 -489.56129297 142.34885912 -488.6484375 147.11328125 C-488.06848886 150.1702349 -487.5347562 153.23292762 -487.015625 156.30078125 C-483.22341242 185.3776361 -483.22341242 185.3776361 -469.06640625 209.92578125 C-463.93456065 212.03889415 -459.35124909 212.13731501 -454.12890625 210.23828125 C-441.88791433 199.35739954 -440.08973586 177.07171265 -436.75390625 161.86328125 C-436.10786696 158.93453749 -435.45975064 156.00629445 -434.80740356 153.07894897 C-434.40609262 151.27661305 -434.00839613 149.47346651 -433.61520386 147.66934204 C-428.36486074 124.00785323 -418.40671992 101.81325254 -397.56640625 88.05078125 C-386.09000496 81.84732109 -370.27508661 79.8961408 -357.69140625 83.36328125 C-356.07063249 83.94385693 -354.4663713 84.57200021 -352.87890625 85.23828125 C-351.91339844 85.64046875 -350.94789063 86.04265625 -349.953125 86.45703125 C-342.40039683 89.91190055 -336.69037978 94.34552837 -330.87890625 100.23828125 C-330.2653125 100.8415625 -329.65171875 101.44484375 -329.01953125 102.06640625 C-319.69123842 111.90818309 -313.96790293 124.80807253 -308.12890625 136.86328125 C-307.5860498 137.98259033 -307.04319336 139.10189941 -306.48388672 140.25512695 C-302.89462518 147.78596003 -299.77131728 155.41531838 -296.87890625 163.23828125 C-296.41484375 164.46804688 -295.95078125 165.6978125 -295.47265625 166.96484375 C-295.11171875 167.92132812 -294.75078125 168.8778125 -294.37890625 169.86328125 C-292.85785329 173.82939131 -291.24130805 177.7037068 -289.44140625 181.55078125 C-287.08520137 186.62398489 -285.11130295 191.81129342 -283.17993164 197.05615234 C-281.49236719 201.63199654 -279.71755594 206.15836778 -277.87890625 210.67578125 C-275.41928413 216.76382764 -273.20786109 222.90965885 -271.05859375 229.11303711 C-269.28603719 234.18999639 -267.28429699 239.12764366 -265.1640625 244.0703125 C-263.28307189 248.70704012 -261.67846127 253.43301003 -260.04345703 258.16088867 C-258.50196123 262.58133989 -256.7907124 266.83636812 -254.8046875 271.078125 C-253.6766895 273.71012034 -252.81545225 276.38667559 -251.94140625 279.11328125 C-250.32322256 284.12013195 -248.32691276 288.79340602 -246.08203125 293.546875 C-244.93041114 296.12306415 -244.01705423 298.68672621 -243.12890625 301.36328125 C-241.30439757 306.55149318 -238.88465414 311.3261314 -236.31640625 316.17578125 C-235.73391113 317.27720459 -235.73391113 317.27720459 -235.13964844 318.40087891 C-232.46607412 323.65003263 -232.46607412 323.65003263 -228.87890625 328.23828125 C-226.60001283 328.71996853 -226.60001283 328.71996853 -224.19140625 328.48828125 C-223.38316406 328.4521875 -222.57492187 328.41609375 -221.7421875 328.37890625 C-221.12730469 328.3325 -220.51242187 328.28609375 -219.87890625 328.23828125 C-219.46946777 327.3870166 -219.46946777 327.3870166 -219.05175781 326.51855469 C-217.84829042 324.17875756 -216.50716447 321.98505176 -215.11328125 319.75390625 C-211.65834997 314.02632369 -208.88537291 308.07584824 -206.12890625 301.98828125 C-204.98445291 299.4941449 -203.83872507 297.0006287 -202.69140625 294.5078125 C-202.38906067 293.84963028 -202.08671509 293.19144806 -201.77520752 292.51332092 C-197.95404333 284.20547333 -194.04452806 275.9394306 -190.12890625 267.67578125 C-189.74959961 266.87500153 -189.37029297 266.0742218 -188.97949219 265.24917603 C-181.69756588 249.88568879 -174.2826391 234.58846484 -166.83015442 219.30715942 C-164.72002485 214.97653023 -162.62667466 210.63827566 -160.546875 206.29296875 C-153.05988058 190.65616336 -145.37490591 175.12321354 -137.62890625 159.61328125 C-137.12084442 158.5945694 -136.61278259 157.57585754 -136.08932495 156.52627563 C-129.51137221 143.34390566 -122.80447973 130.24143862 -115.87890625 117.23828125 C-115.25146074 116.05713109 -114.62401903 114.8759789 -113.99658203 113.69482422 C-102.54904772 92.2039777 -90.87381172 70.84008012 -77.87890625 50.23828125 C-77.25121338 49.2332959 -77.25121338 49.2332959 -76.61083984 48.20800781 C-62.27154518 25.37031729 -43.67323444 7.80713851 -16.87890625 1.23828125 C-11.23062537 0.2363932 -5.71720965 0.04768703 0 0 Z " fill="#FDFDFD" transform="translate(1005.87890625,424.76171875)"/>
</svg>
