<svg xmlns="http://www.w3.org/2000/svg" viewBox="0 0 1254 1254"><path d="M0 0 C0.93029526 -0.00807175 1.86059052 -0.01614349 2.81907654 -0.02445984 C4.77641983 -0.0382258 6.73378637 -0.04898106 8.69116211 -0.05688477 C10.68797871 -0.06845154 12.68476329 -0.0889766 14.68139648 -0.1184082 C17.57947613 -0.16106557 20.47664554 -0.17724526 23.375 -0.1875 C24.70646812 -0.21376213 24.70646812 -0.21376213 26.06483459 -0.24055481 C32.66155235 -0.21752055 35.98559857 1.19215886 40.765625 5.8359375 C44.52676563 10.55308712 45.47911954 13.93167658 45.40234375 19.82421875 C44.7893623 25.0856429 42.42823267 28.96465872 38.68359375 32.61328125 C33.7757203 35.72559124 29.9343156 36.48843426 24.125 36.546875 C22.74674133 36.57207701 21.36848622 36.59747428 19.99023438 36.62304688 C17.85165741 36.65147054 15.71314379 36.67551787 13.57446289 36.69458008 C-3.36465221 36.87446799 -19.32814925 38.93491283 -32.13671875 51.125 C-56.23671175 77.21709382 -72.02050569 115.80081667 -88.19458008 147.01318359 C-89.44056546 149.39895935 -90.69544694 151.77873951 -91.9597168 154.15478516 C-98.99215241 167.39278578 -105.72564407 180.77702131 -112.41918945 194.18847656 C-113.99387167 197.34351554 -115.5721572 200.49673588 -117.15141678 203.64948559 C-124.49425787 218.31250762 -131.70698315 233.03054739 -138.73965454 247.84539795 C-140.33011482 251.18599933 -141.9424709 254.51548341 -143.55859375 257.84375 C-149.24498773 269.55597246 -154.86133713 281.29089044 -160.31640625 293.11328125 C-162.49768357 297.82451841 -164.68445144 302.5331682 -166.87890625 307.23828125 C-167.33743988 308.22166473 -167.33743988 308.22166473 -167.80523682 309.22491455 C-169.74410592 313.37687256 -171.6986783 317.52097502 -173.67019653 321.65753174 C-174.29543069 322.97375761 -174.91677739 324.29183927 -175.53366089 325.61199951 C-183.49746008 342.63505078 -192.19949704 356.45837774 -209.87890625 364.23828125 C-210.63558594 364.61726563 -211.39226563 364.99625 -212.171875 365.38671875 C-216.13437336 366.63321896 -219.93563242 366.57902448 -224.06640625 366.55078125 C-224.91702637 366.5451416 -225.76764648 366.53950195 -226.64404297 366.53369141 C-239.14407934 366.29206391 -247.78055416 362.14019429 -256.94140625 353.67578125 C-261.90319874 348.50683639 -265.34669143 342.43064955 -268.87890625 336.23828125 C-269.43835938 335.28308594 -269.9978125 334.32789063 -270.57421875 333.34375 C-273.60021982 328.02924059 -275.9078331 322.75785239 -277.88671875 316.9765625 C-278.89013122 314.2073021 -280.0607143 311.58925207 -281.31640625 308.92578125 C-283.80067036 303.59147181 -285.75788282 298.13478921 -287.6953125 292.58203125 C-288.98612577 288.93537725 -290.39906075 285.35620118 -291.85546875 281.7734375 C-294.47625617 275.28148699 -296.95859646 268.7327451 -299.390625 262.16796875 C-302.41398348 253.89468105 -302.41398348 253.89468105 -305.87890625 245.80078125 C-307.71617997 241.82320949 -309.13619919 237.72328008 -310.5625 233.5859375 C-313.79258812 224.33542693 -317.32595012 215.21890484 -320.94140625 206.11328125 C-321.42471405 204.89286636 -321.42471405 204.89286636 -321.91778564 203.64779663 C-336.5132906 157.94910997 -336.5132906 157.94910997 -363.87890625 121.23828125 C-369.35755991 119.41206336 -374.82704574 119.33072756 -380.12890625 121.67578125 C-389.34677053 130.26515478 -392.88215896 141.97979755 -395.4296875 153.9765625 C-395.88596455 156.03583015 -396.34234831 158.09507416 -396.79882812 160.15429688 C-397.49302083 163.33396693 -398.18354395 166.51439092 -398.87084961 169.69555664 C-410.94666189 225.31734809 -410.94666189 225.31734809 -431.87890625 240.23828125 C-445.6331231 248.52983041 -459.30196104 251.2870497 -474.94140625 247.61328125 C-481.66318282 245.89170667 -487.26428417 243.39184925 -492.87890625 239.23828125 C-493.82636719 238.56152344 -493.82636719 238.56152344 -494.79296875 237.87109375 C-514.3569089 222.61639152 -519.20556664 193.54248122 -523.41790771 170.69035339 C-523.86300275 168.32287271 -524.33381317 165.96216307 -524.81274414 163.60131836 C-525.86621297 158.34994137 -526.83821094 153.0857828 -527.796875 147.81640625 C-534.18734727 93.13032218 -534.18734727 93.13032218 -557.44140625 45.67578125 C-562.41398231 42.7432364 -565.85260903 41.72498432 -571.609375 42.59375 C-576.75100702 44.0539381 -579.58484231 47.24191125 -582.43359375 51.63671875 C-589.41339118 64.54753576 -592.78301038 79.24554952 -596.05053711 93.44848633 C-597.90436067 101.49666592 -600.09097405 109.42806696 -602.35742188 117.36816406 C-603.03909157 119.81272861 -603.64018288 122.27590332 -604.25390625 124.73828125 C-607.7353883 137.34163525 -612.21910546 149.27134072 -620.87890625 159.23828125 C-621.52085937 160.02460937 -622.1628125 160.8109375 -622.82421875 161.62109375 C-627.21540893 166.54657323 -631.99860902 169.70769784 -637.81640625 172.67578125 C-638.46029297 173.00602295 -639.10417969 173.33626465 -639.76757812 173.67651367 C-648.20273826 177.70938991 -656.91461442 178.53816069 -666.15869141 178.52880859 C-667.13241196 178.53552582 -668.10613251 178.54224304 -669.10935974 178.54916382 C-672.29561603 178.56800598 -675.48166039 178.57206012 -678.66796875 178.57421875 C-680.89895715 178.58065311 -683.12994472 178.58738194 -685.3609314 178.59439087 C-690.02254189 178.60632683 -694.68407845 178.61007517 -699.34570312 178.60888672 C-705.30855839 178.60868302 -711.27093983 178.63605492 -717.23368263 178.67043114 C-721.83544075 178.69269474 -726.43708438 178.69672452 -731.03889084 178.69566727 C-733.237254 178.69802133 -735.43562041 178.70683385 -737.63393021 178.722332 C-740.70892721 178.74199329 -743.78289554 178.73615438 -746.85791016 178.72412109 C-747.75786209 178.73536011 -748.65781403 178.74659912 -749.58503723 178.75817871 C-756.25257632 178.69209238 -761.86533423 177.21346381 -766.71875 172.421875 C-767.08097656 171.84566406 -767.44320312 171.26945313 -767.81640625 170.67578125 C-768.19667969 170.09699219 -768.57695313 169.51820313 -768.96875 168.921875 C-771.49421266 164.25031102 -771.55216375 159.4024723 -770.87890625 154.23828125 C-768.65538363 148.61238566 -765.23354832 145.08649512 -759.87890625 142.23828125 C-757.11905037 141.39395467 -754.64845508 141.11214168 -751.76922607 141.10697937 C-750.95911575 141.10297119 -750.14900543 141.09896301 -749.31434631 141.09483337 C-747.99423805 141.09562645 -747.99423805 141.09562645 -746.64746094 141.09643555 C-745.71363083 141.09296112 -744.77980072 141.08948669 -743.81767273 141.08590698 C-741.7906224 141.07855879 -739.76356407 141.07320842 -737.7365036 141.06961632 C-734.52464807 141.06244162 -731.31294448 141.04676705 -728.10113525 141.02827454 C-718.96930024 140.97585477 -709.83754863 140.92784047 -700.70556641 140.91235352 C-695.1181411 140.90225685 -689.53109864 140.87288939 -683.94382477 140.83103371 C-681.81807606 140.81874312 -679.69227324 140.81359889 -677.56649017 140.81583214 C-674.58655631 140.81819224 -671.60771551 140.79596421 -668.62792969 140.76831055 C-667.75595444 140.77491196 -666.88397919 140.78151337 -665.98558044 140.78831482 C-659.31690232 140.68709275 -653.7916998 139.07534216 -648.92578125 134.3359375 C-642.13202246 123.67464735 -640.10002385 111.17560649 -637.23266602 99.03540039 C-634.70346524 88.36332958 -631.89933998 77.78146307 -628.87890625 67.23828125 C-628.66379395 66.48691895 -628.44868164 65.73555664 -628.22705078 64.96142578 C-621.47945314 41.69511916 -611.85809732 21.37027984 -589.87890625 9.23828125 C-578.50180499 3.72149858 -562.78177633 3.20341004 -550.87890625 7.23828125 C-550.10417969 7.48320312 -549.32945312 7.728125 -548.53125 7.98046875 C-531.62940471 13.88435907 -521.36304792 28.78678185 -513.87890625 44.23828125 C-511.89130659 48.81463468 -510.33188337 53.47111159 -508.87890625 58.23828125 C-508.62431641 59.05167969 -508.36972656 59.86507812 -508.10742188 60.703125 C-500.75259589 84.32771755 -495.25088434 108.38918419 -491.28320312 132.80322266 C-490.4886194 137.58895819 -489.56129297 142.34885912 -488.6484375 147.11328125 C-488.06848886 150.1702349 -487.5347562 153.23292762 -487.015625 156.30078125 C-483.22341242 185.3776361 -483.22341242 185.3776361 -469.06640625 209.92578125 C-463.93456065 212.03889415 -459.35124909 212.13731501 -454.12890625 210.23828125 C-441.88791433 199.35739954 -440.08973586 177.07171265 -436.75390625 161.86328125 C-436.10786696 158.93453749 -435.45975064 156.00629445 -434.80740356 153.07894897 C-434.40609262 151.27661305 -434.00839613 149.47346651 -433.61520386 147.66934204 C-428.36486074 124.00785323 -418.40671992 101.81325254 -397.56640625 88.05078125 C-386.09000496 81.84732109 -370.27508661 79.8961408 -357.69140625 83.36328125 C-356.07063249 83.94385693 -354.4663713 84.57200021 -352.87890625 85.23828125 C-351.91339844 85.64046875 -350.94789063 86.04265625 -349.953125 86.45703125 C-342.40039683 89.91190055 -336.69037978 94.34552837 -330.87890625 100.23828125 C-330.2653125 100.8415625 -329.65171875 101.44484375 -329.01953125 102.06640625 C-319.69123842 111.90818309 -313.96790293 124.80807253 -308.12890625 136.86328125 C-307.5860498 137.98259033 -307.04319336 139.10189941 -306.48388672 140.25512695 C-302.89462518 147.78596003 -299.77131728 155.41531838 -296.87890625 163.23828125 C-296.41484375 164.46804688 -295.95078125 165.6978125 -295.47265625 166.96484375 C-295.11171875 167.92132812 -294.75078125 168.8778125 -294.37890625 169.86328125 C-292.85785329 173.82939131 -291.24130805 177.7037068 -289.44140625 181.55078125 C-287.08520137 186.62398489 -285.11130295 191.81129342 -283.17993164 197.05615234 C-281.49236719 201.63199654 -279.71755594 206.15836778 -277.87890625 210.67578125 C-275.41928413 216.76382764 -273.20786109 222.90965885 -271.05859375 229.11303711 C-269.28603719 234.18999639 -267.28429699 239.12764366 -265.1640625 244.0703125 C-263.28307189 248.70704012 -261.67846127 253.43301003 -260.04345703 258.16088867 C-258.50196123 262.58133989 -256.7907124 266.83636812 -254.8046875 271.078125 C-253.6766895 273.71012034 -252.81545225 276.38667559 -251.94140625 279.11328125 C-250.32322256 284.12013195 -248.32691276 288.79340602 -246.08203125 293.546875 C-244.93041114 296.12306415 -244.01705423 298.68672621 -243.12890625 301.36328125 C-241.30439757 306.55149318 -238.88465414 311.3261314 -236.31640625 316.17578125 C-235.73391113 317.27720459 -235.73391113 317.27720459 -235.13964844 318.40087891 C-232.46607412 323.65003263 -232.46607412 323.65003263 -228.87890625 328.23828125 C-226.60001283 328.71996853 -226.60001283 328.71996853 -224.19140625 328.48828125 C-223.38316406 328.4521875 -222.57492187 328.41609375 -221.7421875 328.37890625 C-221.12730469 328.3325 -220.51242187 328.28609375 -219.87890625 328.23828125 C-219.46946777 327.3870166 -219.46946777 327.3870166 -219.05175781 326.51855469 C-217.84829042 324.17875756 -216.50716447 321.98505176 -215.11328125 319.75390625 C-211.65834997 314.02632369 -208.88537291 308.07584824 -206.12890625 301.98828125 C-204.98445291 299.4941449 -203.83872507 297.0006287 -202.69140625 294.5078125 C-202.38906067 293.84963028 -202.08671509 293.19144806 -201.77520752 292.51332092 C-197.95404333 284.20547333 -194.04452806 275.9394306 -190.12890625 267.67578125 C-189.74959961 266.87500153 -189.37029297 266.0742218 -188.97949219 265.24917603 C-181.69756588 249.88568879 -174.2826391 234.58846484 -166.83015442 219.30715942 C-164.72002485 214.97653023 -162.62667466 210.63827566 -160.546875 206.29296875 C-153.05988058 190.65616336 -145.37490591 175.12321354 -137.62890625 159.61328125 C-137.12084442 158.5945694 -136.61278259 157.57585754 -136.08932495 156.52627563 C-129.51137221 143.34390566 -122.80447973 130.24143862 -115.87890625 117.23828125 C-115.25146074 116.05713109 -114.62401903 114.8759789 -113.99658203 113.69482422 C-102.54904772 92.2039777 -90.87381172 70.84008012 -77.87890625 50.23828125 C-77.25121338 49.2332959 -77.25121338 49.2332959 -76.61083984 48.20800781 C-62.27154518 25.37031729 -43.67323444 7.80713851 -16.87890625 1.23828125 C-11.23062537 0.2363932 -5.71720965 0.04768703 0 0 Z " fill="#a7aaad" transform="translate(1005.87890625,424.76171875)"/></svg>